<?xml version="1.0" encoding="UTF-8"?><svg id="Capa_2" xmlns="http://www.w3.org/2000/svg" viewBox="0 0 124.12 65.53"><defs><style>.cls-1{fill:#fff;}</style></defs><g id="Capa_1-2"><path class="cls-1" d="M105.94,18.18C94.22,6.46,78.64,0,62.06,0S30.01,6.41,18.3,18.06c-.01.01-.02.02-.03.03,0,0-.01.01-.02.02-.02.02-.05.05-.07.07C6.46,29.9,0,45.48,0,62.06c0,1.92,1.55,3.47,3.47,3.47h12.75c1.92,0,3.47-1.55,3.47-3.47s-1.55-3.47-3.47-3.47H7.05c.79-12.64,5.85-24.13,13.76-33.05l5.24,5.24c.68.68,1.57,1.02,2.45,1.02s1.78-.34,2.45-1.02c1.36-1.36,1.35-3.55,0-4.91l-5.23-5.23c8.89-7.81,20.31-12.8,32.85-13.59v7.25c0,1.92,1.55,3.47,3.47,3.47s3.47-1.55,3.47-3.47v-7.25c12.6.79,24.07,5.83,32.98,13.7l-5.12,5.12c-1.36,1.36-1.36,3.55,0,4.91.68.68,1.57,1.02,2.46,1.02s1.78-.34,2.45-1.02l5.12-5.12c7.84,8.9,12.87,20.35,13.65,32.93h-9.19c-1.92,0-3.47,1.55-3.47,3.47s1.55,3.47,3.47,3.47h12.77c1.92,0,3.47-1.55,3.47-3.47,0-16.58-6.46-32.16-18.18-43.88"/><path class="cls-1" d="M62.06,25.73c-.48,0-.9.34-1,.82l-6.5,31.36c0,4.21,3.36,7.62,7.5,7.62s7.5-3.41,7.5-7.62l-6.49-31.36c-.1-.47-.52-.82-1-.82"/></g></svg>